<?xml version="1.0" encoding="utf-8"?>
<!-- Generator: Adobe Illustrator 25.4.1, SVG Export Plug-In . SVG Version: 6.00 Build 0)  -->
<svg version="1.1" id="Layer_1" xmlns="http://www.w3.org/2000/svg" xmlns:xlink="http://www.w3.org/1999/xlink" x="0px" y="0px"
	 viewBox="0 0 22 24.4" style="enable-background:new 0 0 22 24.4;" xml:space="preserve">
<style type="text/css">
	.st0{fill:#FFFFFF;}
</style>
<g>
	<path d="M21.1,12.2c0,5.6-4.5,10.1-10.1,10.1S0.9,17.8,0.9,12.2S5.4,2.1,11,2.1C16.6,2.1,21.1,6.6,21.1,12.2z"/>
	<path class="st0" d="M5.9,12.5L5.9,12.5l2.7-4.2c0-0.1,0.1-0.1,0.2,0c0.4,1,0.8,2.2,0.6,3c-0.1,0.3-0.3,0.7-0.5,1.1
		c0,0.1-0.1,0.1-0.1,0.2c0,0,0,0-0.1,0H6C5.9,12.7,5.8,12.6,5.9,12.5z"/>
	<path class="st0" d="M17.6,13.3v0.6c0,0,0,0.1-0.1,0.1c-0.2,0.1-0.9,0.4-1.2,0.8c-0.7,1-1.3,2.5-2.6,2.5H8.5
		c-1.9,0-3.4-1.5-3.4-3.4v-0.1c0,0,0-0.1,0.1-0.1h2.9c0.1,0,0.1,0.1,0.1,0.1c0,0.2,0,0.4,0.1,0.6C8.5,14.8,8.9,15,9.3,15h1.4v-1.1
		H9.3c-0.1,0-0.1-0.1-0.1-0.1c0,0,0,0,0.1-0.1c0.1-0.2,0.3-0.5,0.5-0.8c0.1-0.2,0.3-0.5,0.4-0.7c0,0,0-0.1,0.1-0.1
		c0-0.1,0.1-0.2,0.1-0.2c0-0.1,0-0.1,0.1-0.2c0-0.2,0.1-0.4,0.1-0.7c0-0.1,0-0.2,0-0.3c0-0.1,0-0.2,0-0.3c0-0.1,0-0.2,0-0.3
		c0-0.1,0-0.3-0.1-0.4l0,0c0-0.1,0-0.2-0.1-0.3C10.1,9.1,10,8.8,9.9,8.6c0-0.1-0.1-0.2-0.1-0.3C9.7,8.1,9.7,8,9.6,7.9
		c0-0.1-0.1-0.1-0.1-0.2c0-0.1-0.1-0.1-0.1-0.2c0,0,0-0.1-0.1-0.1L9.2,7.1c0,0,0-0.1,0.1-0.1l1.1,0.3h0c0,0,0,0,0,0l0.1,0l0.2,0
		l0.1,0V6.7c0-0.3,0.3-0.6,0.6-0.6c0.2,0,0.3,0.1,0.4,0.2c0.1,0.1,0.2,0.2,0.2,0.4v1l0.1,0c0,0,0,0,0,0c0,0,0.1,0.1,0.1,0.1
		c0,0,0.1,0.1,0.1,0.1c0.1,0.1,0.2,0.2,0.4,0.3c0,0,0.1,0.1,0.1,0.1c0.2,0.2,0.4,0.4,0.6,0.6c0.1,0.1,0.1,0.1,0.2,0.2
		c0.1,0.1,0.1,0.1,0.2,0.2c0.1,0.1,0.1,0.2,0.2,0.3c0,0,0.1,0.1,0.1,0.1c0.1,0.1,0.1,0.2,0.2,0.4c0,0.1,0.1,0.1,0.1,0.2
		c0.1,0.2,0.1,0.3,0.2,0.5c0,0,0,0.1,0,0.1v0c0,0,0,0.1,0,0.2c0,0.2,0,0.3,0,0.5c0,0.1,0,0.1-0.1,0.2c0,0.1,0,0.1-0.1,0.2
		c-0.1,0.1-0.1,0.3-0.2,0.4c0,0-0.1,0.1-0.1,0.2c0,0.1-0.1,0.1-0.1,0.2c0,0.1-0.1,0.1-0.1,0.2c0,0.1-0.1,0.1-0.1,0.2
		c-0.1,0.1-0.1,0.2-0.2,0.2c0,0-0.1,0.1-0.1,0.1c0,0-0.1,0.1-0.1,0.1c-0.1,0.1-0.1,0.1-0.2,0.2l-0.1,0.1c0,0,0,0-0.1,0h-0.9V15H13
		c0.2,0,0.5-0.1,0.7-0.2c0.1-0.1,0.4-0.3,0.7-0.7c0,0,0,0,0,0l3.1-0.9C17.5,13.2,17.6,13.2,17.6,13.3z"/>
</g>
</svg>
